<svg width="18.166687" height="21.083374" viewBox="0 0 18.1667 21.0834" fill="none" xmlns="http://www.w3.org/2000/svg" xmlns:xlink="http://www.w3.org/1999/xlink">
	<desc>
			Created with Pixso.
	</desc>
	<defs/>
	<path id="Vector" d="M4.08334 7L4.08334 5C4.08334 3.67389 4.14566 1.93768 5.08334 1C6.02103 0.0623169 7.75726 0 9.08334 0C10.4094 0 12.1457 0.0623169 13.0833 1C14.021 1.93768 14.0833 3.67389 14.0833 5L14.0833 7L17.0833 7C17.3486 7 17.8958 6.81244 18.0833 7C18.2709 7.18756 18.0833 7.7348 18.0833 8L18.0833 20C18.0833 20.2652 18.2709 20.8124 18.0833 21C17.8958 21.1876 17.3486 21 17.0833 21L1.08334 21C0.818146 21 0.270874 21.1876 0.0833435 21C-0.104187 20.8124 0.0833435 20.2652 0.0833435 20L0.0833435 8C0.0833435 7.7348 -0.104187 7.18756 0.0833435 7C0.270874 6.81244 0.818146 7 1.08334 7L4.08334 7ZM4.08334 9L2.08334 9L2.08334 19L16.0833 19L16.0833 9L14.0833 9L14.0833 11L12.0833 11L12.0833 9L6.08334 9L6.08334 11L4.08334 11L4.08334 9ZM6.08334 7L12.0833 7L12.0833 5C12.0833 4.20435 11.646 3.56262 11.0833 3C10.5208 2.43738 9.879 2 9.08334 2C8.28769 2 7.64597 2.43738 7.08334 3C6.52075 3.56262 6.08334 4.20435 6.08334 5L6.08334 7Z" fill="#C4C4C4" fill-opacity="1.000000" fill-rule="nonzero"/>
</svg>
