<svg width="20.000046" height="18.009094" viewBox="0 0 20 18.0091" fill="none" xmlns="http://www.w3.org/2000/svg" xmlns:xlink="http://www.w3.org/1999/xlink">
	<desc>
			Created with Pixso.
	</desc>
	<defs/>
	<path id="coolicon" d="M10 18.0011C9.35503 17.4291 8.62602 16.8341 7.85503 16.2011L7.84502 16.2011C5.13002 13.9811 2.05302 11.4691 0.694016 8.45911C0.247543 7.50085 0.0109253 6.45825 1.52588e-05 5.40112C-0.00297546 3.95062 0.578796 2.56012 1.61383 1.54388C2.64886 0.527649 4.0498 -0.0285034 5.50003 0.00109863C6.68065 0.00299072 7.83586 0.344177 8.82802 0.984131C9.26399 1.26709 9.65845 1.60938 10 2.0011C10.3435 1.6109 10.7381 1.26886 11.173 0.984131C12.1648 0.344055 13.3197 0.00286865 14.5 0.00109863C15.9502 -0.0285034 17.3512 0.527649 18.3862 1.54388C19.4212 2.56012 20.003 3.95062 20 5.40112C19.9898 6.45996 19.7532 7.50433 19.306 8.46411C17.947 11.4741 14.871 13.9851 12.156 16.2011L12.146 16.2091C11.374 16.8381 10.646 17.4331 10.001 18.0091L10 18.0011ZM5.50003 2.0011C4.56853 1.98944 3.67009 2.34595 3.00003 2.9931C2.3544 3.62732 1.99358 4.49615 1.99994 5.40112C2.01135 6.17163 2.18585 6.93097 2.51202 7.62915C3.15353 8.92786 4.01913 10.1031 5.06903 11.1011C6.06003 12.1011 7.20003 13.0692 8.18602 13.8831C8.45901 14.1082 8.73703 14.3351 9.01503 14.5621L9.19002 14.7051C9.45702 14.9231 9.73302 15.1491 10 15.3711L10.013 15.3591L10.019 15.3541L10.025 15.3541L10.034 15.3471L10.039 15.3471L10.044 15.3471L10.062 15.3322L10.103 15.2991L10.11 15.2932L10.121 15.2851L10.127 15.2851L10.136 15.2771L10.8 14.7321L10.974 14.5891C11.255 14.3601 11.533 14.1331 11.806 13.9081C12.792 13.0941 13.933 12.1271 14.924 11.1221C15.9741 10.1247 16.8397 8.94965 17.481 7.65112C17.8131 6.9469 17.9901 6.17963 18.0001 5.40112C18.0042 4.49896 17.6435 3.63342 17 3.0011C16.3312 2.35107 15.4326 1.99158 14.5 2.0011C13.3619 1.99146 12.274 2.46851 11.51 3.31213L10 5.05212L8.49002 3.31213C7.72609 2.46851 6.63809 1.99146 5.50003 2.0011Z" fill="#C4C4C4" fill-opacity="1.000000" fill-rule="nonzero"/>
</svg>
